<?xml version="1.0" encoding="UTF-8" standalone="no"?>
<!-- Created with Inkscape (http://www.inkscape.org/) -->

<svg
   width="1024"
   height="512"
   viewBox="0 0 1024 512"
   version="1.1"
   id="svg1"
   xml:space="preserve"
   inkscape:version="1.4.1 (93de688d07, 2025-03-30)"
   sodipodi:docname="logo-dark.svg"
   xmlns:inkscape="http://www.inkscape.org/namespaces/inkscape"
   xmlns:sodipodi="http://sodipodi.sourceforge.net/DTD/sodipodi-0.dtd"
   xmlns="http://www.w3.org/2000/svg"
   xmlns:svg="http://www.w3.org/2000/svg"><sodipodi:namedview
     id="namedview1"
     pagecolor="#ffffff"
     bordercolor="#111111"
     borderopacity="1"
     inkscape:showpageshadow="0"
     inkscape:pageopacity="0"
     inkscape:pagecheckerboard="1"
     inkscape:deskcolor="#d1d1d1"
     inkscape:document-units="px"
     inkscape:zoom="0.84927302"
     inkscape:cx="177.79912"
     inkscape:cy="330.28248"
     inkscape:window-width="2112"
     inkscape:window-height="1206"
     inkscape:window-x="0"
     inkscape:window-y="0"
     inkscape:window-maximized="0"
     inkscape:current-layer="layer1" /><defs
     id="defs1"><inkscape:path-effect
       effect="fillet_chamfer"
       id="path-effect82"
       is_visible="true"
       lpeversion="1"
       nodesatellites_param="F,0,0,1,0,0,0,1 @ F,0,0,1,0,0,0,1 @ F,0,0,1,0,0,0,1 @ F,0,0,1,0,0,0,1 @ F,0,0,1,0,0,0,1"
       radius="0"
       unit="px"
       method="auto"
       mode="F"
       chamfer_steps="1"
       flexible="false"
       use_knot_distance="true"
       apply_no_radius="true"
       apply_with_radius="true"
       only_selected="false"
       hide_knots="false" /></defs><g
     inkscape:label="Layer 1"
     inkscape:groupmode="layer"
     id="layer1"><path
       style="fill:none;fill-opacity:1;stroke:#8a31b9;stroke-width:5;stroke-dasharray:none;stroke-dashoffset:21.5;stroke-opacity:1"
       d="m 207.34717,221.93652 21.14983,9.50883 c 42.05297,25.15015 -16.1274,9.17201 -19.33181,19.51716 -5.82326,14.96581 29.47153,16.9032 40.86462,19.27167 1.86911,0.38856 3.55025,0.91467 4.90571,1.67908"
       id="path82"
       sodipodi:nodetypes="cccsc"
       inkscape:path-effect="#path-effect82"
       inkscape:original-d="m 207.34717,221.93652 21.14983,9.50883 c 42.05297,25.15015 -16.1274,9.17201 -19.33181,19.51716 -5.82326,14.96581 29.47153,16.9032 40.86462,19.27167 1.86911,0.38856 3.55025,0.91467 4.90571,1.67908"
       transform="translate(92.725761)" /><g
       id="g81"
       inkscape:label="right"
       transform="translate(92.725761,21.868267)"
       style="stroke:#cacaca;stroke-opacity:1"><path
         id="path80"
         style="display:inline;fill:none;fill-opacity:1;stroke:#cacaca;stroke-width:5;stroke-dasharray:none;stroke-opacity:1"
         inkscape:label="ape"
         d="m 267.4043,297.5293 c -0.41411,0.0178 -0.83219,0.0774 -1.25001,0.18164 l -5.44921,1.36328 c -3.34172,0.83563 -5.37275,4.22274 -4.53711,7.56445 0.70909,2.83392 3.25044,4.72656 6.04492,4.72656 0.50121,0 1.01174,-0.0621 1.51953,-0.18945 l 5.44922,-1.36328 c 3.34172,-0.83563 5.37274,-4.22079 4.53711,-7.5625 -0.73118,-2.924 -3.41567,-4.84526 -6.31445,-4.7207 v 0" /><path
         id="path79"
         style="display:inline;fill:none;fill-opacity:1;stroke:#cacaca;stroke-width:5;stroke-dasharray:none;stroke-opacity:1"
         inkscape:label="ape"
         d="m 236.59375,297.5293 c -2.90089,-0.12535 -5.58204,1.7967 -6.3125,4.7207 -0.83563,3.34171 1.19539,6.72687 4.53711,7.5625 l 5.44922,1.36328 c 0.50861,0.12736 1.01636,0.18945 1.51757,0.18945 2.79449,0 5.33861,-1.89346 6.04688,-4.72656 0.83564,-3.34171 -1.1954,-6.72882 -4.53711,-7.56445 l -5.44921,-1.36328 c -0.41834,-0.10446 -0.83755,-0.16374 -1.25196,-0.18164 v 0" /><path
         id="path78"
         style="display:inline;fill:none;fill-opacity:1;stroke:#cacaca;stroke-width:5;stroke-dasharray:none;stroke-opacity:1"
         inkscape:label="ape"
         d="m 252,282.94727 c 19.14151,0 37.16406,24.10378 37.16406,42.78515 0,17.39383 -16.67173,31.54297 -37.16406,31.54297 -20.49232,0 -37.16406,-14.14996 -37.16406,-31.54297 0,-18.68137 18.02256,-42.78515 37.16406,-42.78515 v 0" /><path
         id="path77"
         style="display:inline;fill:none;fill-opacity:1;stroke:#cacaca;stroke-width:5;stroke-dasharray:none;stroke-opacity:1"
         inkscape:label="ape"
         d="m 285.71907,244.87304 c -2.05006,0 -4.06344,0.83297 -5.51368,2.28321 -1.45024,1.45024 -2.2832,3.4628 -2.2832,5.51367 0,2.05006 0.83296,4.0623 2.2832,5.51172 1.45106,1.45024 3.46362,2.2832 5.51368,2.2832 2.05827,0 4.06969,-0.83296 5.51171,-2.2832 1.45845,-1.44942 2.28321,-3.46084 2.28321,-5.51172 0,-2.05005 -0.82476,-4.05521 -2.28321,-5.51367 -1.44202,-1.45024 -3.45344,-2.28321 -5.51171,-2.28321 v 0" /><path
         id="path74"
         style="display:inline;fill:none;fill-opacity:1;stroke:#cacaca;stroke-width:5;stroke-dasharray:none;stroke-opacity:1"
         inkscape:label="ape"
         d="m 277.92266,227.94565 c 2.46154,-0.77792 5.08072,-1.1976 7.79609,-1.1976 14.29369,0 25.92383,11.62932 25.92383,25.92383 0,7.03345 -3.37238,14.01085 -7.64258,22.84375 -2.74682,5.68181 -5.84252,12.10869 -8.60742,19.71484 -1.66798,-2.73204 -3.52385,-5.3794 -5.57226,-7.87891 -10.56744,-12.89521 -23.9994,-19.99609 -37.82227,-19.99609 -5.88219,0 -11.69359,1.28601 -17.24359,3.75716" /><path
         id="path67"
         style="display:inline;fill:none;fill-opacity:1;stroke:#cacaca;stroke-width:5;stroke-dasharray:none;stroke-opacity:1"
         inkscape:label="ape"
         d="m 306.21722,199.64986 c 10.90506,9.79959 19.22363,22.55221 23.53278,37.19389 1.09281,3.7131 4.74968,6.06563 8.57618,5.51758 0.85124,-0.11996 1.69775,-0.18164 2.51367,-0.18164 4.72786,0 9.16876,1.84456 12.5039,5.19531 3.29816,3.31377 5.10227,7.70125 5.08008,12.35352 -0.0493,10.40228 -4.42837,21.57551 -12.01563,30.6582 -6.71629,8.03999 -14.19275,12.2772 -18.16796,12.34375 -3.38855,-1.37629 -7.28776,-0.21287 -9.36329,2.8125 -4.00561,5.83958 -8.81764,11.17234 -14.2168,15.80078 v -0.002 -0.002 -0.002 c 2.68849,-16.91726 8.36871,-28.66739 13.38087,-39.03516 4.93492,-10.20836 9.19726,-19.02645 9.19726,-29.63085 0,-20.09261 -14.34795,-36.89795 -33.33594,-40.70807" /><path
         id="path65"
         style="display:inline;fill:none;fill-opacity:1;stroke:#cacaca;stroke-width:5;stroke-dasharray:none;stroke-opacity:1"
         inkscape:label="ape"
         d="m 180.82293,325.04416 c 6.47846,6.95188 14.15991,13.1336 22.08137,17.90701 7.71379,17.49736 26.80475,29.91992 49.0957,29.91992 22.28109,-8.2e-4 41.36753,-12.41371 49.08789,-29.90039 10.40064,-6.26684 20.39541,-14.98145 27.78711,-24.6582 9.38752,-0.32949 20.35518,-6.98018 29.50195,-17.92969 10.02021,-11.99385 15.57325,-26.40666 15.64063,-40.58203 0.0411,-8.83125 -3.37675,-17.15185 -9.62305,-23.42773 -5.82067,-5.84861 -13.42897,-9.26243 -21.59961,-9.73243 -5.29587,-14.461 -14.11079,-27.61945 -25.48301,-38.08545" /><path
         id="path1"
         style="display:inline;fill:none;fill-opacity:1;stroke:#cacaca;stroke-width:5;stroke-dasharray:none;stroke-opacity:1"
         inkscape:label="ape"
         d="m 252,313.875 c -3.44442,0 -6.23633,2.79191 -6.23633,6.23633 v 16.24414 h -5.0039 c -3.44442,0 -6.23828,2.79386 -6.23828,6.23828 0,3.44442 2.79386,6.23633 6.23828,6.23633 h 22.48046 c 3.44442,0 6.23829,-2.79191 6.23829,-6.23633 0,-3.44442 -2.79387,-6.23828 -6.23829,-6.23828 h -5.0039 v -16.24414 c 0,-3.44442 -2.79191,-6.23633 -6.23633,-6.23633 v 0" /><path
         style="fill:none;fill-opacity:1;stroke:#cacaca;stroke-width:5;stroke-dasharray:none;stroke-dashoffset:21.5;stroke-opacity:1"
         d="M 163.40283,339.65732 328.39965,174.6605"
         id="path81" /></g><g
       id="g80"
       inkscape:label="left"
       style="display:inline;stroke:#cacaca;stroke-opacity:1"
       transform="translate(68.725761,-21.080904)"><path
         id="path76"
         style="display:inline;fill:none;fill-opacity:1;stroke:#cacaca;stroke-width:6.08521;stroke-dasharray:none;stroke-opacity:1"
         inkscape:label="ape"
         d="m 107.45852,120.35404 c -2.495,0 -4.94299,1.01376 -6.70799,2.77876 -1.764998,1.765 -2.781126,4.21436 -2.781126,6.71036 0,2.505 1.016128,4.94399 2.781126,6.70799 1.765,1.765 4.21199,2.77875 6.70799,2.77875 2.505,0 4.94399,-1.01375 6.70799,-2.77875 1.775,-1.764 2.78113,-4.20299 2.78113,-6.70799 0,-2.495 -1.00613,-4.94536 -2.78113,-6.71036 -1.764,-1.765 -4.20299,-2.77876 -6.70799,-2.77876 v 0"
         transform="matrix(0.82166501,0,0,0.82166501,109.98275,133.98234)" /><path
         id="path75"
         style="display:inline;fill:none;fill-opacity:1;stroke:#cacaca;stroke-width:6.08521;stroke-dasharray:none;stroke-opacity:1"
         inkscape:label="ape"
         d="m 127.51146,152.28869 c -9.11836,4.05996 -17.65696,10.74846 -25.04509,19.76345 -2.493,3.042 -4.750298,6.26395 -6.779298,9.58895 -3.363,-9.258 -7.132586,-17.07877 -10.475586,-23.99377 -5.197,-10.75 -9.30133,-19.24178 -9.30133,-27.80178 0,-17.397 14.153361,-31.550364 31.550364,-31.550364 17.397,0 31.55036,14.153364 31.55036,31.550364 0,2.99046 1.38393,5.65819 3.54615,7.39757"
         transform="matrix(0.82166501,0,0,0.82166501,109.98275,133.98234)" /><path
         id="path73"
         style="display:inline;fill:none;fill-opacity:1;stroke:#cacaca;stroke-width:6.08521;stroke-dasharray:none;stroke-opacity:1"
         inkscape:label="ape"
         d="m 180.04675,99.753401 0.002,-6.91e-4"
         transform="matrix(0.82166501,0,0,0.82166501,109.98275,133.98234)" /><path
         id="path72"
         style="display:inline;fill:none;fill-opacity:1;stroke:#cacaca;stroke-width:6.08521;stroke-dasharray:none;stroke-opacity:1"
         inkscape:label="ape"
         d="m 159.44796,120.35219 c 3.09065,-9.776 10.82312,-17.50861 20.59879,-20.598789"
         transform="matrix(0.82166501,0,0,0.82166501,109.98275,133.98234)" /><path
         id="path71"
         style="display:inline;fill:none;fill-opacity:1;stroke:#cacaca;stroke-width:6.08521;stroke-dasharray:none;stroke-opacity:1"
         inkscape:label="ape"
         d="m 142.55703,137.24311 c 6.671,-3.19039 11.42617,-10.18717 16.89093,-16.89092"
         transform="matrix(0.82166501,0,0,0.82166501,109.98275,133.98234)"
         sodipodi:nodetypes="cc" /><path
         id="path70"
         style="display:inline;fill:none;fill-opacity:1;stroke:#cacaca;stroke-width:6.08521;stroke-dasharray:none;stroke-opacity:1"
         inkscape:label="ape"
         d="m 75.274858,204.52529 c -2.952977,-3.26349 -5.687322,-6.7183 -8.166856,-10.33308 -2.527,-3.682 -7.272497,-5.09793 -11.395497,-3.42293 -4.839,-0.081 -13.938163,-5.23685 -22.111163,-15.02285 -9.234,-11.054 -14.564508,-24.65229 -14.623508,-37.31229 -0.027,-5.662 2.17104,-11.00174 6.18504,-15.03474 4.06,-4.078 9.463766,-6.3229 15.217766,-6.3229 0.993,0 2.023242,0.0751 3.059242,0.22106 4.659,0.663 9.106176,-2.19612 10.435176,-6.71512 C 66.132058,68.935061 105.043,39.846307 148.5,39.846307 c 24.86302,0 48.23797,9.521678 65.98457,25.469264"
         transform="matrix(0.82166501,0,0,0.82166501,109.98275,133.98234)" /><path
         id="path69"
         style="display:inline;fill:none;fill-opacity:1;stroke:#cacaca;stroke-width:6.08521;stroke-dasharray:none;stroke-opacity:1"
         inkscape:label="ape"
         d="m 81.209324,198.59082 c -2.298612,3.3011 -4.353291,4.63823 -7.078303,5.17191"
         transform="matrix(0.82166501,0,0,0.82166501,109.98275,133.98234)"
         sodipodi:nodetypes="cc" /><path
         id="path68"
         style="display:inline;fill:none;fill-opacity:1;stroke:#cacaca;stroke-width:6.08521;stroke-dasharray:none;stroke-opacity:1"
         inkscape:label="ape"
         d="m 199.49686,80.303285 c -3.22013,-0.646152 -6.54992,-0.985212 -9.95739,-0.985212 -16.882,0 -31.85947,8.323907 -41.03947,21.081907 -9.18,-12.758 -24.15748,-21.081907 -41.03948,-21.081907 -27.861003,0 -50.528597,22.667597 -50.528597,50.528597 0,12.906 5.187449,23.63797 11.193449,36.06197 4.518675,9.34699 9.4835,19.61751 13.083952,32.68218"
         transform="matrix(0.82166501,0,0,0.82166501,109.98275,133.98234)" /><path
         id="path66"
         style="display:inline;fill:none;fill-opacity:1;stroke:#cacaca;stroke-width:6.08521;stroke-dasharray:none;stroke-opacity:1"
         inkscape:label="ape"
         d="m 227.98727,51.812874 c -2.69215,-2.477625 -5.50206,-4.831269 -8.42111,-7.048485 C 198.98416,29.131389 174.41,20.868074 148.5,20.868074 c -25.91,0 -50.484166,8.263315 -71.066166,23.896315 -17.926,13.616 -31.735981,32.37805 -39.434981,53.40005 -9.944,0.573 -19.20361,4.727761 -26.28761,11.844761 -7.6019998,7.638 -11.76164234,17.76451 -11.71164234158,28.51251 C 0.08160066,155.77371 6.8398824,173.31608 19.034882,187.91408 c 11.132,13.326 24.479087,21.41679 35.905087,21.81879 2.144295,2.80679 4.467796,5.54562 6.934609,8.1927"
         transform="matrix(0.82166501,0,0,0.82166501,109.98275,133.98234)" /><path
         style="fill:none;fill-opacity:1;stroke:#cacaca;stroke-width:5;stroke-dasharray:none;stroke-dashoffset:21.5;stroke-opacity:1"
         d="M 151.76777,323.76459 316.76459,158.76777"
         id="path81-3" /></g><text
       xml:space="preserve"
       style="font-weight:300;font-size:133.333px;font-family:'Maple Mono NF';-inkscape-font-specification:'Maple Mono NF Light';text-align:start;writing-mode:lr-tb;direction:ltr;text-anchor:start;fill:#000000;fill-opacity:1;stroke:none;stroke-width:5;stroke-dasharray:none;stroke-dashoffset:21.5;stroke-opacity:1"
       x="538.32617"
       y="292.66653"
       id="text82"><tspan
         sodipodi:role="line"
         id="tspan82"
         x="538.32617"
         y="292.66653"
         style="font-size:133.333px;fill:#000000;fill-opacity:1;stroke:none"><tspan
           style="fill:#8a31b9;fill-opacity:1"
           id="tspan83">co</tspan><tspan
           style="fill:#cacaca;fill-opacity:1"
           id="tspan1">co</tspan></tspan></text></g></svg>
